<?xml version="1.0" encoding="utf-8"?>
<!-- Generator: Adobe Illustrator 16.0.0, SVG Export Plug-In . SVG Version: 6.00 Build 0)  -->
<!DOCTYPE svg PUBLIC "-//W3C//DTD SVG 1.1//EN" "http://www.w3.org/Graphics/SVG/1.1/DTD/svg11.dtd">
<svg version="1.1" id="Layer_1" xmlns="http://www.w3.org/2000/svg" xmlns:xlink="http://www.w3.org/1999/xlink" x="0px" y="0px"
	 width="612px" height="792px" viewBox="0 0 612 792" enable-background="new 0 0 612 792" xml:space="preserve">
<path fill-rule="evenodd" clip-rule="evenodd" fill="#CD2027" d="M276.279,35.637c195.142-3.013,347.007,148.451,284.32,357.121
	c-40.743,135.627-153.674,287.346-254.762,362.746c-1.408,0-2.815,0-4.223,0c-23.926-23.899-47.858-47.807-71.784-71.706
	C166.384,605.135,105.233,532.894,63.743,430.72c-23.869-58.781-38.107-153.853-11.26-222.146
	c12.497-31.789,30.884-59.598,50.671-84.359c28.211-35.304,75.903-63.775,123.862-78.735
	C243.436,42.199,259.86,38.918,276.279,35.637z M287.54,135.463c-15.012,3.749-30.028,7.499-45.041,11.248
	c-42.316,17.457-76.203,52.523-92.896,95.607c-44.205,114.087,58.589,241.277,175.94,220.74
	C525.062,428.141,514.562,132.848,287.54,135.463z"/>
</svg>
